:SAMPLES-PER-SECOND 30
:FRAME-RANGE 1-744
:FULLY-SPECIFIED
:DEGREES
512
root  -78.4093 38.233 92.0665 164.109 -40.1271 -175.549
RightUpLeg  13.2371 1.71182 13.4379
RightLeg  3.9245 7.45007 -1.61359
RightFoot  -6.31345 0.18873 -5.26354
RightToes  5.82063e-011 0 -3.6325e-017
Spine  13.0694 1.83129 10.9042
Spine1  -1.17883 4.91354 -7.38801
HEad  12.9416 -24.4086 -6.95372
LeftShoulder1  3.14233 -3.84875 -36.662
LeftArm  24.8658 19.8907 -28.5283
LeftForeArm  0.777837 -8.5023 -16.631
LeftHand  -0.906653 -5.99808 9.55049
RightShoulder  14.3984 15.2307 65.7737
RightArm  9.19023 14.8059 -1.90156
RightForeArm  12.9815 9.09511 12.4553
RightHand  0.81188 21.8017 2.92653
LeftUpLeg  -7.77781 0.61174 9.92016
LeftLeg  40.6454 1.41892 1.68619
LeftFoot  -7.0286 0.0979888 -1.48094
LeftToes  1.25507e-010 -3.78807e-010 5.71421e-011
513
root  -79.2472 38.3352 91.4174 165.106 -38.3357 -176.629
RightUpLeg  15.3951 1.58994 12.4535
RightLeg  2.89767 10.2107 -2.19734
RightFoot  -7.50016 0.0955826 -4.35801
RightToes  5.82063e-011 0 -3.6325e-017
Spine  12.9544 2.3091 10.0305
Spine1  -1.34301 5.12587 -7.67673
HEad  12.8106 -24.1577 -7.28558
LeftShoulder1  3.11146 -3.74583 -36.8364
LeftArm  26.2001 21.2506 -28.7983
LeftForeArm  0.764964 -9.34456 -16.2335
LeftHand  -0.684681 -7.87351 6.35051
RightShoulder  14.9473 16.349 64.6255
RightArm  11.804 16.0704 -0.77707
RightForeArm  9.76738 12.2588 10.9726
RightHand  0.775929 22.2323 2.72068
LeftUpLeg  -8.63814 -1.30788 9.47812
LeftLeg  31.2794 2.09409 1.7195
LeftFoot  -5.95681 0.121656 -1.82598
LeftToes  1.25507e-010 -3.78807e-010 5.71421e-011
514
root  -80.1075 38.3707 90.7374 165.814 -37.049 -177.25
RightUpLeg  17.3235 1.67782 11.9298
RightLeg  2.18283 11.6641 -2.97142
RightFoot  -8.70877 0.0380829 -4.21501
RightToes  5.82063e-011 0 -3.6325e-017
Spine  12.5288 2.54494 9.7144
Spine1  -1.06024 5.29737 -8.39676
HEad  12.6884 -24.1306 -6.9714
LeftShoulder1  3.08304 -3.6964 -36.7389
LeftArm  25.7439 22.159 -29.3009
LeftForeArm  0.713382 -9.62609 -16.0383
LeftHand  -0.842268 -6.46525 8.57065
RightShoulder  15.2862 17.0526 63.9341
RightArm  12.8922 17.5982 -0.0944148
RightForeArm  7.77187 14.049 9.99452
RightHand  0.758608 22.5372 2.61222
LeftUpLeg  -8.72205 -3.66488 9.48684
LeftLeg  20.8702 2.98633 1.58514
LeftFoot  -3.66629 0.199775 -2.64988
LeftToes  1.25507e-010 -3.78807e-010 5.71421e-011
515
root  -81.0076 38.3461 90.0178 166.39 -35.8448 -177.753
RightUpLeg  19.2055 1.5048 11.1367
RightLeg  1.7893 14.1985 -3.47535
RightFoot  -10.4109 -0.0430104 -3.36744
RightToes  5.82063e-011 0 -3.6325e-017
Spine  12.0757 2.82623 9.14083
Spine1  -0.86128 5.41661 -8.48228
HEad  12.5766 -24.1191 -7.27605
LeftShoulder1  3.087 -3.66134 -36.9951
LeftArm  25.8888 22.9443 -29.1429
LeftForeArm  4.17295 -10.0058 -15.6438
LeftHand  -1.29297 -8.3817 11.2292
RightShoulder  15.4751 17.6642 62.9877
RightArm  17.4184 17.4018 0.445735
RightForeArm  2.84602 17.4697 7.91586
RightHand  0.874417 22.5584 3.08524
LeftUpLeg  -7.89781 0.0241412 8.64724
LeftLeg  9.84282 -1.76793 2.24749
LeftFoot  -2.33516 0.305126 -3.6962
LeftToes  1.25507e-010 -3.78807e-010 5.71421e-011
516
root  -81.9453 38.2817 89.2335 166.627 -34.8952 -178.01
RightUpLeg  21.2279 1.03747 10.5904
RightLeg  1.40338 12.7294 -3.88311
RightFoot  -10.7691 -0.0452515 -5.48911
RightToes  5.82063e-011 0 -3.6325e-017
Spine  11.4596 2.98077 8.73839
Spine1  -0.397127 5.49178 -8.62831
HEad  12.8739 -24.3108 -7.5392
LeftShoulder1  3.07518 -3.62063 -37.0723
LeftArm  25.5727 23.3283 -28.8287
LeftForeArm  3.87053 -10.388 -15.393
LeftHand  -1.35402 -9.26683 11.0661
RightShoulder  15.615 17.9834 62.6569
RightArm  19.04 17.6662 0.604398
RightForeArm  1.69386 18.5821 7.18468
RightHand  0.917042 22.6526 3.24692
LeftUpLeg  -6.29995 4.60616 8.03518
LeftLeg  -0.934532 -6.54942 2.91232
LeftFoot  -3.51823 0.336012 -4.6046
LeftToes  1.25507e-010 -3.78807e-010 5.71421e-011
517
root  -82.9373 38.1395 88.4078 166.869 -34.0196 -178.433
RightUpLeg  23.2385 0.928185 9.96471
RightLeg  1.65786 13.5634 -4.4903
RightFoot  -12.573 -0.141844 -5.29461
RightToes  5.82063e-011 0 -3.6325e-017
Spine  10.8755 3.08302 8.5342
Spine1  -0.0403958 5.6415 -9.35944
HEad  13.283 -24.3906 -7.54927
LeftShoulder1  3.05496 -3.61115 -36.8529
LeftArm  25.8538 23.4784 -28.5485
LeftForeArm  2.80323 -10.5673 -15.3414
LeftHand  -1.45303 -7.93486 12.9632
RightShoulder  15.6146 17.9429 62.7599
RightArm  19.2296 17.867 0.776966
RightForeArm  2.51566 18.2288 7.40962
RightHand  0.934474 22.7295 3.30722
LeftUpLeg  -4.79259 3.83693 7.35142
LeftLeg  -8.95071 -5.48264 4.12788
LeftFoot  -6.82454 0.285644 -6.20271
LeftToes  1.25507e-010 -3.78807e-010 5.71421e-011
518
root  -83.9624 37.9512 87.5862 167.224 -33.1552 -178.839
RightUpLeg  24.6135 1.00257 9.39615
RightLeg  3.05965 14.112 -4.99243
RightFoot  -14.6587 -0.262354 -5.63643
RightToes  5.82063e-011 0 -3.6325e-017
Spine  10.6055 3.17171 8.44333
Spine1  -0.16097 5.77211 -10.02
HEad  13.5879 -24.7518 -8.20061
LeftShoulder1  3.03332 -3.57377 -36.7759
LeftArm  24.7929 23.2981 -27.8756
LeftForeArm  3.54212 -10.0763 -15.5443
LeftHand  -1.22669 -8.35734 10.694
RightShoulder  15.4985 17.7327 62.8923
RightArm  16.2468 18.3241 1.0953
RightForeArm  6.41727 15.4674 9.16672
RightHand  0.930873 22.773 3.28636
LeftUpLeg  -4.68609 3.16308 6.45545
LeftLeg  -10.7948 -2.8074 4.16092
LeftFoot  -10.096 0.131635 -6.54561
LeftToes  1.25507e-010 -3.78807e-010 5.71421e-011
519
root  -85.0051 37.7206 86.7576 167.31 -33.1618 -178.912
RightUpLeg  26.0164 1.56604 9.29948
RightLeg  4.71467 13.3546 -5.09029
RightFoot  -16.5955 -0.35381 -5.26347
RightToes  5.82063e-011 0 -3.6325e-017
Spine  10.1549 3.06058 7.88342
Spine1  0.266762 5.51488 -9.64009
HEad  13.1818 -25.7566 -8.68741
LeftShoulder1  3.0479 -3.5547 -37.0877
LeftArm  22.6378 22.2033 -27.1391
LeftForeArm  2.05692 -9.25166 -15.9677
LeftHand  -0.838612 -7.07612 8.14557
RightShoulder  15.1109 17.1789 62.9542
RightArm  19.8413 17.0696 0.510449
RightForeArm  3.05213 16.3358 8.90946
RightHand  1.12799 22.3272 4.16644
LeftUpLeg  -5.16646 3.66739 5.86734
LeftLeg  -8.04872 -3.08171 2.91043
LeftFoot  -7.92437 0.225453 -5.96376
LeftToes  1.25507e-010 -3.78807e-010 5.71421e-011
